<?xml version="1.0" encoding="utf-8"?>
<svg xmlns="http://www.w3.org/2000/svg" xmlns:xlink="http://www.w3.org/1999/xlink" version= "1.1" width="2500px" height="2500px" viewBox="-710 -146 2500 2500">
<g id="layer1">
<g style="fill:rgb(136,18,254); fill-opacity:1.0; stroke-linejoin: miter">
<path d="M-608.9555,1028.1735L-608.9555,1028.1735C-560.14026,1017.23773,-518.7064,1007.9405,-478.70853,946.55066L-478.70853,946.55066C-435.70538,880.5483,-395.1537,755.1844,-385.1459,640.6654L-385.1459,640.6654C-379.66437,577.94006,-383.3532,518.5588,-386.6783,465.63452L-386.6783,465.63452C-389.13474,426.5367,-391.5432,389.2783,-388.88083,358.81232L-388.88083,358.81238C-388.6799,356.51312,-388.44882,354.23166,-388.18512,351.9755L-388.18512,351.97546C-379.08408,274.1128,-333.295,244.3066,-293.88052,224.27979L-293.88052,224.27979C-253.07166,203.5445,-212.77602,190.26886,-84.82564,183.13002L-84.82564,183.13002C42.208466,176.04231,259.3596,174.85812,475.28384,173.67172L475.09195,173.67346L1100.1772,165.79965C1101.765,165.77965,1103.3514,165.89964,1104.9182,166.15823L1104.9182,166.15823C1202.12,182.20197,1310.2855,199.39621,1366.4348,237.43555L1366.4348,237.43555C1428.7616,279.65994,1427.8491,346.15903,1429.8119,439.80508L1429.8118,439.8006L1430.0134,449.34653L1430.0133,449.33826C1432.2903,555.585,1437.4136,710.5759,1468.1348,808.55475L1468.1348,808.55475C1497.669,902.74774,1551.3363,943.8678,1588.7706,968.3652L1588.7706,968.3652C1626.5552,993.09174,1645.6997,999.403,1665.7585,1006.1394C1676.9932,1009.91235,1684.4583,1020.5654,1684.1699,1032.4131L1684.1699,1032.4131L1681.157,1156.2177C1680.9377,1165.2252,1676.2434,1173.5309,1668.6395,1178.3646L1668.6395,1178.3646C1596.6932,1224.1007,1530.6156,1266.4972,1491.5356,1316.6736L1491.5356,1316.6736C1454.6697,1364.0074,1440.313,1420.738,1443.542,1529.3174L1443.542,1529.3174C1444.2839,1554.2639,1445.9414,1581.708,1447.6971,1610.7358L1447.6971,1610.7358C1449.5775,1641.8247,1451.5615,1674.5892,1452.5215,1706.8702L1452.5215,1706.8702C1454.5261,1774.2792,1452.3484,1844.321,1432.6439,1895.4531L1432.6439,1895.4531C1392.8248,1998.7821,1286.8768,2015.6106,1202.923,2030.684C1201.3832,2030.9604,1199.8225,2031.1028,1198.258,2031.1091L1198.258,2031.1091L449.45038,2034.1675C449.3735,2034.1678,449.29688,2034.1677,449.22,2034.1674L449.198,2034.1672L449.12833,2034.1669L449.15033,2034.167C255.46672,2033.3068,61.41681,2032.4454,-68.99303,2029.8246L-68.993034,2029.8246C-193.3641,2027.3251,-280.18735,2025.2804,-323.2962,1943.3394L-323.2962,1943.3394C-353.9932,1884.9907,-360.64163,1786.8296,-366.79907,1703.0002L-366.79907,1703.0002C-368.38055,1681.4692,-369.92075,1660.5107,-371.74405,1640.5332L-371.74405,1640.5332C-380.887,1540.3558,-397.1516,1465.0778,-423.68875,1398.0626L-423.68875,1398.0626C-450.66656,1329.9347,-487.60565,1271.8977,-519.37463,1243.121L-519.37463,1243.121C-548.39386,1216.835,-573.68445,1214.261,-606.15314,1211.2981C-620.1193,1210.0237,-630.7894,1198.2767,-630.7193,1184.2527L-630.7193,1184.2527L-630.0701,1054.4069C-630.00714,1041.8097,-621.24817,1030.9272,-608.9555,1028.1735L-608.9555,1028.1735 M-597.1412,1080.9105L-576.02655,1054.6771L-576.6757,1184.523L-601.2419,1157.4775C-567.28516,1160.5762,-526.1505,1164.0636,-483.0925,1203.066L-483.0925,1203.066C-442.78458,1239.5774,-401.99466,1306.0565,-373.44064,1378.1649L-373.44064,1378.1649C-344.4458,1451.3866,-327.37442,1532.0686,-317.92343,1635.6211L-317.92343,1635.6211C-316.0492,1656.157,-314.47412,1677.6099,-312.89996,1699.0413L-312.89996,1699.0413C-306.3445,1788.2896,-299.61386,1872.2788,-275.4671,1918.1768L-275.4671,1918.1768C-250.11789,1966.3605,-203.8778,1973.0585,-67.90711,1975.7911L-67.90712,1975.7911C61.97783,1978.4015,255.51665,1979.2622,449.39038,1980.1233L449.41238,1980.1234L449.48206,1980.1238L449.22968,1980.1235L1198.0374,1977.0652L1193.3724,1977.4904C1285.2583,1960.9929,1355.1501,1946.2502,1382.2145,1876.0195L1382.2145,1876.0195C1397.5753,1836.159,1400.5146,1776.1892,1398.501,1708.4767L1398.501,1708.4767C1397.5695,1677.1517,1395.641,1645.2418,1393.7513,1613.9988L1393.7513,1613.9988C1392.0085,1585.1855,1390.2924,1556.8458,1389.5215,1530.9238L1389.5215,1530.9238C1386.1448,1417.3782,1400.6484,1345.4148,1448.898,1283.4651L1448.898,1283.4651C1494.933,1224.3588,1570.2229,1176.888,1639.6461,1132.7557L1627.1287,1154.9027L1630.1416,1031.0981L1648.553,1057.3718C1625.75,1049.7139,1602.0272,1041.6284,1559.1771,1013.587L1559.1771,1013.587C1515.9753,985.31537,1451.2344,935.2919,1416.5659,824.72406L1416.5659,824.72406C1383.0844,717.9415,1378.2114,554.5545,1375.9813,450.49622L1375.9812,450.48795L1375.7795,440.94202L1375.7794,440.93753C1373.6035,337.11807,1370.6361,305.56052,1336.1228,282.17883L1336.1228,282.17883C1292.3608,252.53152,1199.7207,236.58148,1096.117,219.48105L1100.8579,219.83963L475.77267,227.71344C475.7085,227.71425,475.64496,227.71483,475.58078,227.71518L475.58078,227.71518C258.93066,228.90558,43.506737,230.0982,-81.81499,237.09038L-81.81499,237.09038C-206.22086,244.03145,-238.06241,256.53873,-269.3992,272.46118L-269.3992,272.46118C-302.1304,289.09216,-328.4947,306.8184,-334.5063,358.24976L-334.5063,358.24973C-334.705,359.9498,-334.88367,361.70847,-335.04172,363.5172L-335.04172,363.51727C-337.272,389.03864,-335.28867,421.68588,-332.7404,462.24573L-332.7404,462.24573C-329.4374,514.8178,-325.42325,578.04486,-331.3068,645.37036L-331.3068,645.37036C-341.87585,766.3118,-384.40573,900.8134,-433.42734,976.0531L-433.42734,976.0531C-485.45404,1055.905,-544.9886,1069.2272,-597.1412,1080.9105 Z"/>
</g>
<g style="fill:rgb(254,254,254); fill-opacity:1.0; stroke-linejoin: miter">
<path d="M161.51456,827.81885L161.51456,827.81885L162.0867,624.7416C162.12819,610.0112,173.95992,598.0279,188.6886,597.7988L188.6886,597.7988L421.1537,594.1841L420.10947,594.2206L420.81055,594.1825L420.81125,594.1825C449.643,592.6185,478.751,591.04297,507.41226,590.01306L507.41226,590.01306C602.5469,586.5946,698.4549,588.7554,770.4682,621.0381L770.4682,621.0381C865.7025,663.73047,917.8602,758.44257,900.7343,849.07074L900.7343,849.07074C884.24176,936.34705,802.759,1013.3946,732.0802,1081.5786L726.80695,1038.7158C801.80927,1081.9199,889.0467,1130.9451,923.35376,1201.8604L923.35376,1201.8604C958.226,1273.9443,936.2707,1363.1794,918.7995,1438.5627C918.51904,1439.773,918.15533,1440.9626,917.71124,1442.1228L917.71124,1442.1228C896.16187,1498.4128,871.0086,1559.2739,743.822,1587.3635L743.82196,1587.3635C687.24603,1599.8586,610.1151,1606.0652,523.6694,1609.1714L523.6695,1609.1714C425.7491,1612.69,313.6845,1612.2815,202.3476,1611.8792C187.65521,1611.8262,175.69757,1600.0437,175.42764,1585.3535L175.42764,1585.3535L161.51901,828.3913C161.5155,828.2005,161.514,828.0097,161.51456,827.81885L161.51456,827.81885 M215.5586,827.971L215.55414,827.3985L229.4628,1584.3606L202.54288,1557.835C314.16458,1558.2383,425.08722,1558.6348,521.7287,1555.1619L521.72876,1555.1619C607.698,1552.073,680.6805,1545.9619,732.16705,1534.5908L732.16693,1534.5908C834.9901,1511.8821,849.31244,1469.6274,867.239,1422.8005L866.1507,1426.3608C885.09235,1344.6328,899.5497,1276.7554,874.70337,1225.3962L874.70337,1225.3962C849.2918,1172.8682,780.67883,1132.1174,699.83093,1085.5461C692.4734,1081.3079,687.5358,1073.8579,686.4991,1065.4307C685.4623,1057.0032,688.4468,1048.5786,694.5577,1042.6833L694.5577,1042.6833C770.20764,969.70355,835.0537,905.5871,847.6298,839.0357L847.6298,839.0357C859.5727,775.8358,823.53894,704.05536,748.36053,670.3538L748.36053,670.3538C689.22485,643.84393,605.2858,640.5753,509.353,644.02246L509.35306,644.0225C481.26755,645.0317,452.6508,646.5791,423.73856,648.1474L423.73923,648.1474L423.03815,648.1854C422.6899,648.20435,422.342,648.2165,421.99396,648.22186L421.99396,648.22186L189.52885,651.8366L216.13074,624.8939L215.5586,827.971 Z"/>
</g>
<g style="fill:rgb(254,254,254); fill-opacity:1.0; stroke-linejoin: miter">
<path d="M344.15552,987.67346L344.15552,987.67346C440.49435,991.8456,528.0727,995.16815,581.9147,976.3601L581.9147,976.3601C629.86743,959.6094,650.4713,924.2857,654.27527,879.1987L654.27527,879.1987C658.33813,831.043,642.7626,785.981,598.1029,769.34357L598.1029,769.34357C586.6886,765.0913,572.40735,762.1925,555.2322,760.6902L555.2322,760.6902C498.1087,755.6936,420.83502,766.81024,338.7815,778.7915L361.8864,751.2189L369.9956,1013.8363L344.15552,987.67346 M341.8172,1041.6671C327.68314,1041.055,316.41376,1029.6449,315.9771,1015.5043L315.9771,1015.5043L307.86792,752.8869C307.44406,739.16016,317.38364,727.2986,330.97287,725.31433L330.97287,725.31433C410.65143,713.6799,495.11032,701.1807,559.94147,706.85156L559.94147,706.85156C580.1962,708.6232,599.59796,712.2278,616.9698,718.69946L616.9697,718.69946C694.8877,747.7269,713.0962,824.8582,708.1282,883.74225L708.1282,883.74225C702.90125,945.69495,671.6589,1002.25745,599.7373,1027.3811L599.7373,1027.3811C533.7049,1050.4475,433.38098,1045.6326,341.8172,1041.6671 Z"/>
</g>
<g style="fill:rgb(254,254,254); fill-opacity:1.0; stroke-linejoin: miter">
<path d="M345.243,1129.5729L345.243,1129.5729C393.09076,1126.7546,441.92108,1123.8702,488.33118,1123.8702L488.33124,1123.8702C526.16907,1123.8702,563.1134,1125.7782,597.38055,1131.3823L597.3806,1131.3823C671.3361,1143.4773,742.5259,1174.7346,764.278,1243.2812L764.278,1243.2812C785.0261,1308.6644,756.4341,1399.5494,674.01587,1442.657L674.01587,1442.657C617.016,1472.47,536.08545,1477.9802,454.97784,1477.9802L454.9779,1477.9802C421.70123,1477.9802,387.3556,1477.0134,353.4712,1476.0614L353.38617,1476.0588L353.3452,1476.0576C339.01996,1475.61,327.536,1464.0559,327.17566,1449.7281L327.17566,1449.7281L319.81824,1157.2278C319.4519,1142.6626,330.69855,1130.4296,345.243,1129.5729L345.243,1129.5729 M348.42065,1183.5237L373.84543,1155.8687L381.20282,1448.3691L355.0332,1422.0398L355.07416,1422.041L354.98914,1422.0386C389.02136,1422.9948,422.59094,1423.9359,454.97778,1423.9358L454.97784,1423.9358C536.9222,1423.9359,605.158,1417.6819,648.96796,1394.7677L648.96796,1394.7677C707.9741,1363.9053,725.6404,1300.2012,712.76514,1259.6279L712.76514,1259.6279C700.8941,1222.219,658.57874,1196.1531,588.6579,1184.718L588.65796,1184.718C558.3389,1179.7598,524.5732,1177.9146,488.33118,1177.9146L488.33124,1177.9146C443.79626,1177.9146,396.60144,1180.6858,348.42065,1183.5237 Z"/>
</g>
<g style="fill:rgb(254,254,254); fill-opacity:1.0; stroke-linejoin: miter">
<path d="M524.9886,706.3676C537.1102,706.3676,548.77985,706.80524,559.8607,707.7745C580.06256,709.5415,599.37683,713.13403,616.6463,719.56854C616.6697,719.5773,616.69336,719.585,616.7173,719.5918L616.7111,719.5918C693.9999,748.4238,712.1567,824.9738,707.205,883.66437C702.0023,945.3298,670.94116,1001.5268,599.43176,1026.5065C560.11743,1040.2397,508.52826,1044.0684,453.76297,1044.0684C418.52963,1044.0684,382.00635,1042.4838,346.6643,1040.9501L346.66428,1040.9501L341.85733,1040.7416L341.85727,1040.7416C328.20773,1040.1505,317.32477,1029.1312,316.9031,1015.4757L308.7939,752.85834C308.38458,739.6021,317.98343,728.1472,331.10672,726.231L331.10675,726.231L333.67926,725.85535L336.3112,725.471L336.31116,725.471C400.77267,716.0586,467.91135,706.3676,524.9886,706.3676 Z M488.33124,1124.7966C526.14185,1124.7966,563.0313,1126.7035,597.231,1132.2976C597.2508,1132.3008,597.27057,1132.3035,597.2904,1132.3053L597.2844,1132.3053C671.1546,1144.3959,741.8178,1175.5663,763.39496,1243.5615C784.0082,1308.5197,755.6035,1398.9384,673.5865,1441.836C616.8232,1471.5253,536.1304,1477.0516,455.02502,1477.0548L455.02078,1477.0548C455.00656,1477.0542,454.99225,1477.0538,454.97787,1477.0538C421.7773,1477.0538,387.52005,1476.0912,353.6935,1475.1409L353.6934,1475.1409L353.4971,1475.1354L353.4991,1475.1354L353.4141,1475.1328L353.41376,1475.1328L353.3728,1475.1316L353.37415,1475.1316C339.54004,1474.6993,328.4498,1463.5417,328.1018,1449.7048L320.7444,1157.2045C320.39062,1143.1392,331.2516,1131.325,345.2975,1130.4977L345.29764,1130.4977L345.73163,1130.472L346.16574,1130.4464L346.1656,1130.4464C393.735,1127.6448,442.2398,1124.7966,488.33118,1124.7966 Z M566.71844,641.9651C548.1658,641.9651,528.98444,642.39,509.31973,643.0966C509.3126,643.09686,509.30545,643.0972,509.29834,643.09766L509.29324,643.09766C481.22156,644.1066,452.61533,645.65326,423.7295,647.22107L423.72525,647.22107C423.71323,647.22125,423.70114,647.2217,423.68906,647.22235L422.98798,647.2604L422.98788,647.2604C422.65332,647.27856,422.31387,647.2904,421.97968,647.29553L421.97955,647.29553L216.0845,650.4981C216.07547,650.49786,216.06639,650.4977,216.0573,650.4977L216.05594,650.4977C215.54543,650.4977,215.13098,650.91077,215.12955,651.4215L214.63297,827.68225L214.63312,827.7019L228.05084,1557.9464C228.0565,1558.2545,228.21498,1558.5397,228.47363,1558.7072C228.62585,1558.8057,228.80106,1558.856,228.97722,1558.856C228.99118,1558.856,229.00513,1558.8556,229.01907,1558.855L229.02136,1558.855C256.23935,1558.9474,282.67322,1559.0199,309.4921,1559.0199C384.00134,1559.0199,456.1479,1558.4456,521.76196,1556.0886C521.77484,1556.0881,521.78766,1556.0874,521.80035,1556.0864L521.79517,1556.0864C607.75836,1552.997,680.7993,1546.8844,732.3668,1535.4965C732.3683,1535.4961,732.36975,1535.4958,732.3712,1535.4955L732.3667,1535.4955C833.6375,1513.1296,849.53125,1471.7411,867.0865,1425.7948L867.41394,1424.9377L867.4223,1424.9377C867.43744,1424.8982,867.45,1424.8572,867.4598,1424.8151C886.17487,1343.979,900.37756,1276.3392,875.53735,1224.9928C849.973,1172.1489,781.03723,1131.2548,700.29333,1084.7434C693.1881,1080.6505,688.4198,1073.4558,687.4186,1065.3175C686.41736,1057.1792,689.2995,1049.0432,695.20087,1043.3501C770.7628,970.4552,835.8967,906.1154,848.54016,839.2077C860.5716,775.5392,824.2634,703.36487,748.7395,669.5084C701.5357,648.3475,638.67444,641.9651,566.71844,641.9651 Z"/>
</g>
<g style="fill:rgb(136,18,254); fill-opacity:1.0; stroke-linejoin: miter">
<path d="M567.1266,589.7513C641.6864,589.7513,713.3616,596.4531,770.08923,621.8835C864.9811,664.42236,916.8608,758.74207,899.824,848.89874C885.3722,925.37573,820.75885,994.06757,757.1969,1056.001C756.92694,1056.264,756.84326,1056.6644,756.9852,1057.0135C757.0795,1057.2454,757.2608,1057.424,757.48236,1057.5177L757.4748,1057.5177C824.1432,1096.4906,893.0229,1141.2914,922.5198,1202.2638C956.4054,1272.3083,936.3871,1358.7067,919.1321,1433.0308L919.132,1433.0309L917.89703,1438.3534L917.897,1438.3536C917.62585,1439.5234,917.2752,1440.6703,916.846,1441.7916L916.84607,1441.7916C895.35846,1497.9203,870.39075,1558.4603,743.62665,1586.4589L743.6222,1586.4589C687.1434,1598.9325,610.094,1605.138,523.67346,1608.2452L523.66425,1608.2452L523.631,1608.2458C457.1989,1610.6327,384.25336,1611.212,309.42847,1611.212C274.17407,1611.212,238.33397,1611.0828,202.73463,1610.9542L202.73483,1610.9542L202.35114,1610.9528L202.35094,1610.9528C188.1623,1610.9016,176.6146,1599.5228,176.35393,1585.3365L162.4453,828.37427C162.44188,828.1887,162.44046,828.00696,162.441,827.82153L162.441,827.8215L163.01314,624.7442C163.0532,610.5189,174.47928,598.94635,188.703,598.72516L420.64642,595.1195C420.66968,595.11914,420.69272,595.1179,420.7155,595.1159L420.7113,595.1159L420.85577,595.1088C420.86993,595.10815,420.88406,595.1071,420.89813,595.1058L420.89392,595.1058L421.38483,595.07916C450.03912,593.5249,478.97168,591.9621,507.44214,590.939L507.44254,590.939L507.45294,590.9387C527.38916,590.22235,547.35693,589.7513,567.1266,589.7513 Z M1098.4608,218.94339L1098.4491,218.94347L475.7611,226.78711L475.76135,226.78711C475.69882,226.78789,475.63797,226.78844,475.57593,226.78876L475.57565,226.78876C258.96054,227.979,43.52087,229.17159,-81.832405,236.16443L-81.83322,236.16443L-81.86744,236.16537C-206.33328,243.10985,-238.3198,255.63031,-269.81885,271.63525C-302.66736,288.3259,-329.36212,306.26,-335.42645,358.14322L-335.42654,358.14322L-335.4269,358.14618C-335.62674,359.8565,-335.80573,361.61884,-335.96466,363.43784L-335.9648,363.43784C-338.2024,389.04495,-336.21167,421.76938,-333.665,462.3039L-333.62433,462.95135L-333.62433,462.95132L-333.58353,463.60092L-333.58353,463.60095C-330.2965,515.9192,-326.40134,578.59546,-332.2297,645.28973C-342.7891,766.1211,-385.28516,900.46606,-434.20355,975.54736C-479.19196,1044.5969,-529.7619,1063.6857,-576.3604,1075.1509C-576.8154,1075.2628,-577.1152,1075.6969,-577.0588,1076.162L-577.0604,1076.162L-577.4802,1160.135C-577.48157,1160.4084,-577.36206,1160.6685,-577.15375,1160.8456C-577.0002,1160.9762,-576.8098,1161.0518,-576.6123,1161.0642L-576.6181,1161.0642C-548.2141,1165.0364,-516.5812,1173.9817,-483.71448,1203.7528L-483.71436,1203.7529C-443.55273,1240.1321,-402.8293,1306.4655,-374.30206,1378.506L-374.30212,1378.506C-374.3021,1378.5061,-374.30206,1378.5061,-374.30203,1378.5062C-345.34915,1451.6218,-328.2918,1532.2094,-318.84607,1635.7053C-316.97604,1656.1951,-315.40387,1677.5988,-313.83237,1698.9941L-313.83237,1698.994L-313.82385,1699.1101L-313.82385,1699.1102C-307.2754,1788.2633,-300.5463,1872.496,-276.287,1918.609L-276.28644,1918.609C-258.53702,1952.3458,-230.15965,1966.4779,-166.26416,1972.4604C-166.24893,1972.4619,-166.2337,1972.4629,-166.2185,1972.4636L-166.22017,1972.4636C-138.99529,1975.0101,-106.790474,1975.9362,-67.92572,1976.7173C60.850494,1979.3053,252.0881,1980.173,444.27243,1981.0277L444.2767,1981.0277C444.28934,1981.0277,444.30194,1981.0275,444.3145,1981.027L444.31894,1981.027L449.31866,1981.0505L449.32324,1981.0505C449.33862,1981.0505,449.35397,1981.0502,449.36923,1981.0494L449.36475,1981.0494L1195.6749,1978.002L1195.7465,1977.9989L1195.7584,1977.9979L1195.8472,1977.9863C1286.4629,1961.6761,1356.0245,1946.5588,1383.0791,1876.3527C1398.5153,1836.2969,1401.441,1776.1493,1399.427,1708.4387C1398.4952,1677.1134,1396.5648,1645.1631,1394.676,1613.939L1394.6759,1613.9386L1394.659,1613.6617L1394.6422,1613.3853L1394.6423,1613.3853C1392.9114,1584.76,1391.2148,1556.6655,1390.4484,1530.9238L1390.4479,1530.9238L1390.4475,1530.8962C1387.0731,1417.4359,1401.574,1345.7335,1449.6287,1284.0343L1449.6289,1284.0343C1493.051,1228.2821,1562.6105,1182.8713,1628.8009,1140.7502L1628.7847,1140.7502C1629.1025,1140.6248,1629.3346,1140.329,1629.3672,1139.9729L1637.402,1052.3657L1637.4182,1052.3657C1637.4575,1051.9445,1637.2052,1051.5474,1636.8026,1051.406C1616.2999,1044.2073,1592.8192,1034.0154,1560.0228,1013.0309L1560.0072,1013.0309C1559.9745,1013.0028,1559.9398,1012.9769,1559.9031,1012.9534C1515.214,984.3419,1451.6317,934.5622,1417.428,824.37585C1384.367,717.8712,1379.231,554.66113,1376.9083,450.51038L1376.9082,450.49002L1376.6846,440.3121L1376.6837,440.2889L1376.6835,440.28372L1376.6838,440.28372C1374.4379,337.09326,1371.52,305.0494,1336.6387,281.40924L1336.6385,281.40924C1293.0233,251.85051,1201.1793,235.89491,1098.6228,218.95578C1098.5729,218.94754,1098.5223,218.94339,1098.4718,218.94339 Z"/>
</g>
<g style="fill:rgb(136,18,254); fill-opacity:1.0; stroke-linejoin: miter">
<path d="M524.7179,758.6553C478.05692,758.6553,421.94382,765.9625,362.51187,774.52704C362.09204,774.5875,361.79028,774.9621,361.82062,775.3852L361.8236,775.3852L368.41226,988.76074C368.41986,989.0072,368.5395,989.23663,368.73715,989.38403C368.87827,989.48926,369.04813,989.54443,369.22052,989.54443C369.22263,989.54443,369.2247,989.5444,369.2268,989.5444L369.2305,989.5444C399.22418,990.768,428.13556,991.7195,455.14758,991.7195C505.8552,991.7195,549.988,988.3693,582.18134,977.12354C630.4907,960.2482,651.2556,924.60815,655.08105,879.2667C659.15826,830.94135,643.5366,785.40643,598.3852,768.5858C586.88226,764.30054,572.52344,761.3909,555.3026,759.88464C545.64886,759.0402,535.4335,758.6553,524.7179,758.6553 Z"/>
</g>
<g style="fill:rgb(136,18,254); fill-opacity:1.0; stroke-linejoin: miter">
<path d="M454.9716,1424.7444C454.97595,1424.7444,454.97263,1424.7448,454.96304,1424.7448C454.95825,1424.7448,454.9519,1424.7448,454.94415,1424.7444 Z M488.32877,1177.106C451.8477,1177.1061,413.59442,1178.9639,374.48972,1181.1956L374.48596,1181.1956C374.42297,1181.1968,374.35977,1181.2054,374.29764,1181.2218L374.29987,1181.2218C373.98248,1181.3037,373.74362,1181.5723,373.701,1181.8993L373.69727,1181.8993C373.6883,1181.9673,373.68793,1182.0375,373.69708,1182.1084L373.69653,1182.1084L379.74985,1422.7637C379.75604,1423.0101,379.87433,1423.2401,380.07108,1423.3887C380.21283,1423.4957,380.3842,1423.5519,380.5582,1423.5519C380.56442,1423.5519,380.57065,1423.5519,380.5769,1423.5518L380.5807,1423.5518C405.83514,1424.2174,430.7003,1424.744,454.94235,1424.7444L454.9378,1424.7444C454.95108,1424.745,454.96436,1424.7454,454.97766,1424.7454C454.99097,1424.7454,455.00424,1424.745,455.01752,1424.7444L455.01297,1424.7444C536.92865,1424.7427,605.34125,1418.4987,649.3427,1395.4843C708.6991,1364.4387,726.52905,1300.3281,713.5359,1259.3833C701.52106,1221.5214,658.7983,1195.3807,588.8495,1183.9309L588.8436,1183.9309C588.8255,1183.9266,588.80707,1183.923,588.78845,1183.9199C558.4174,1178.9531,524.61487,1177.1069,488.3588,1177.1069L488.37375,1177.1069C488.36047,1177.1063,488.3471,1177.106,488.33365,1177.106 Z"/>
</g>
</g>
</svg>