<?xml version="1.0" encoding="utf-8"?>
<svg xmlns="http://www.w3.org/2000/svg" xmlns:xlink="http://www.w3.org/1999/xlink" version= "1.1" width="2500px" height="2500px" viewBox="-710 -146 2500 2500">
<g id="layer1">
<g style="fill:rgb(38,76,228); fill-opacity:1.0; stroke-linejoin: miter">
<path d="M-303.40552,392.7434L-303.40552,392.7434L1329.6423,395.33325L1364.8596,395.38916L1361.2534,430.42163L1189.7778,2096.0403L1187.4705,2118.4526L1165.5652,2123.7256L526.4761,2277.5664L519.08435,2279.3457L511.687,2277.5925L-170.37555,2115.945L-192.80841,2110.6287L-194.75116,2087.6562L-335.17163,427.2544L-338.09485,392.68835L-303.40552,392.7434 M-303.5064,456.401L-271.7403,421.89L-131.31989,2082.2917L-155.6955,2054.003L526.36707,2215.6504L511.578,2215.6765L1150.6672,2061.8354L1126.4546,2089.521L1297.9302,423.9027L1329.541,458.9911L-303.5064,456.401 Z"/>
</g>
<g style="fill:rgb(38,76,228); fill-opacity:1.0; stroke-linejoin: miter">
<path d="M1022.88336,2017.8618L1022.88336,2017.8618L523.3062,2147.6536L515.5581,2149.6665L507.7801,2147.7747L-30.05658,2016.9536L-52.503754,2011.4937L-54.269714,1988.4595L-162.73386,573.7778L-165.34003,539.78644L-131.24979,539.5168L1160.8196,529.30255L1196.3589,529.02155L1192.7341,564.3765L1046.543,1990.302L1044.2876,2012.301L1022.88336,2017.8618 M1006.8765,1956.2498L983.2171,1983.8093L1129.4084,557.8842L1161.323,592.9583L-130.74652,603.17267L-99.26245,568.91156L9.201752,1983.5935L-15.011383,1955.0994L522.8252,2085.9204L507.29913,2086.0415L1006.8765,1956.2498 Z"/>
</g>
<g style="fill:rgb(38,76,228); fill-opacity:1.0; stroke-linejoin: miter">
<path d="M1195.2423,530.03754L1191.7323,564.2738L1045.5411,1990.1993L1043.3572,2011.5022L1022.6301,2016.8871L523.053,2146.6787L515.5497,2148.628L508.01813,2146.7961L-29.81855,2015.975L-51.555447,2010.6877L-53.26553,1988.3824L-161.72968,573.7008L-164.25339,540.785L-131.24182,540.52386L1160.8275,530.30963L1195.2423,530.03754 Z M-268.8171,455.44888C-269.09863,455.44888,-269.36734,455.56677,-269.55804,455.77396C-269.7491,455.98154,-269.84436,456.25977,-269.8206,456.5409L-134.2662,2059.4055C-134.22707,2059.8684,-133.87999,2060.2336,-133.44034,2060.3123L-133.44168,2060.3123L518.73737,2214.8782C518.8142,2214.8965,518.89215,2214.9053,518.96954,2214.9053C519.0504,2214.9053,519.1308,2214.8955,519.2089,2214.8765L519.2053,2214.8765L1128.9977,2068.0886C1129.4167,2067.9878,1129.7212,2067.633,1129.7639,2067.2114L1129.7638,2067.2114L1295.3254,459.0394L1295.3307,458.93625L1295.3307,458.93524C1295.3307,458.37964,1294.8807,457.929,1294.3252,457.9281L-268.81546,455.44888 Z"/>
</g>
<g style="fill:rgb(38,76,228); fill-opacity:1.0; stroke-linejoin: miter">
<path d="M541.37683,563.89124L541.37683,563.89124L541.3769,563.89197L541.4643,565.0819L541.46234,566.2744L541.2017,726.4573L541.14996,758.28613L477.49237,758.1825L477.54413,726.35364L477.80463,566.1708L477.89,568.5532L477.88995,568.55237L475.55933,536.80896L539.0462,532.1478 Z"/>
</g>
<g style="fill:rgb(38,76,228); fill-opacity:1.0; stroke-linejoin: miter">
<path d="M537.3021,1000.0452L537.3021,1000.0452L536.75793,1144.8254L536.6383,1176.654L472.98105,1176.4148L473.10068,1144.5862L473.64484,999.80597L473.76447,967.9773L537.42175,968.21655 Z"/>
</g>
<g style="fill:rgb(38,76,228); fill-opacity:1.0; stroke-linejoin: miter">
<path d="M535.594,1416.6852L535.594,1416.6852L537.8855,1666.0895L538.1779,1697.917L474.5229,1698.5017L474.23047,1666.6743L471.93896,1417.2701L471.64655,1385.4426L535.3016,1384.8577 Z"/>
</g>
<g style="fill:rgb(38,76,228); fill-opacity:1.0; stroke-linejoin: miter">
<path d="M543.4863,1955.8918L543.4863,1955.8918L543.4525,2070.4001L543.4431,2102.229L479.78537,2102.2102L479.79474,2070.3813L479.82858,1955.8729L479.83795,1924.0441L543.4957,1924.0629 Z"/>
</g>
<g style="fill:rgb(235,235,235); fill-opacity:1.0; stroke-linejoin: miter">
<path d="M512.2474,814.7704L512.2474,814.7704L-1.8751392,810.059L30.220135,776.96375L36.829147,942.76215L4.544765,912.20465L507.31595,904.60944L475.98303,935.4518L480.72537,781.95996L512.2474,814.7704 M512.83075,751.11536L545.35724,751.41345L544.3527,783.9258L539.6104,937.4176L538.67163,967.8008L508.2775,968.25995L5.506314,975.85516L-25.541298,976.3242L-26.77807,945.29767L-33.387085,779.49927L-34.718567,746.09766L-1.291811,746.404L512.83075,751.11536 Z"/>
</g>
<g style="fill:rgb(235,235,235); fill-opacity:1.0; stroke-linejoin: miter">
<path d="M534.99164,1210.3114L534.99164,1210.3114L535.2223,1353.3247L535.27216,1384.2363L504.3752,1385.1898L71.91221,1398.5356L39.79818,1399.5266L39.108887,1367.4048L35.741478,1210.4736L35.042923,1177.9192L67.60482,1177.9619L503.20462,1178.5339L534.9405,1178.5757L534.99164,1210.3114 M471.33395,1210.4141L503.121,1242.1917L67.52123,1241.6196L99.384575,1209.108L102.75199,1366.0391L69.94866,1334.9082L502.41165,1321.5623L471.5646,1353.4274L471.33395,1210.4141 Z"/>
</g>
<g style="fill:rgb(235,235,235); fill-opacity:1.0; stroke-linejoin: miter">
<path d="M545.4286,1722.3405L545.4286,1722.3405L543.92255,1891.0227L543.5771,1929.7098L505.68185,1921.9147L78.48249,1834.0378L54.42919,1829.09L53.112495,1804.5684L36.50213,1495.2192L34.769524,1462.9512L67.06011,1461.7075L255.68613,1454.442L286.60385,1453.2511L288.6691,1484.1227L301.58667,1677.216L275.32242,1647.9893L519.0946,1690.7051L545.66943,1695.3618L545.4286,1722.3405 M481.77347,1721.7722L508.10745,1753.4076L264.3351,1710.6918L239.7378,1706.3816L238.07092,1681.465L225.15335,1488.3718L258.1363,1518.0524L69.51028,1525.318L100.06826,1491.8062L116.67861,1801.1553L91.30862,1771.6855L518.50806,1859.5624L480.26736,1890.4543L481.77347,1721.7722 Z"/>
</g>
<g style="fill:rgb(254,254,254); fill-opacity:1.0; stroke-linejoin: miter">
<path d="M601.76373,782.6518L601.76373,782.6518L599.2418,935.9289L567.8434,903.5792L787.6655,906.5226L821.4686,906.97516L818.98193,940.6899L799.3589,1206.74L797.1776,1236.314L767.5233,1236.2273L564.8026,1235.6353L596.7244,1203.8264L596.62964,1356.2869L564.9812,1324.439L795.3673,1325.7446L829.26294,1325.9368L826.94104,1359.7534L808.6869,1625.5996L807.34644,1645.1191L789.32495,1652.7366L578.3236,1741.925L597.75476,1712.0171L601.0136,1887.5977L559.2018,1857.9673L911.6023,1741.4939L889.8425,1769.4517L960.4435,779.0839L992.25073,813.176L569.99805,813.957L601.76373,782.6518 M538.1146,781.60455L538.6287,750.3572L569.8803,750.2994L992.13293,749.51843L1026.375,749.4552L1023.94006,783.6105L953.3391,1773.9783L951.8231,1795.2451L931.5792,1801.936L579.1786,1918.4092L538.16833,1931.9636L537.3668,1888.779L534.10803,1713.1985L533.7085,1691.6729L553.5392,1683.2905L764.5405,1594.1018L745.1786,1621.2388L763.43286,1355.3926L795.0066,1389.4014L564.6204,1388.0955L532.9523,1387.916L532.972,1356.2473L533.06665,1203.7867L533.08655,1171.8846L564.9885,1171.9778L767.7092,1172.5701L735.87366,1202.0574L755.4968,936.0074L786.81323,970.1746L566.9911,967.23126L535.06744,966.80383L535.5927,934.8816L538.1146,781.60455 Z"/>
</g>
<g style="fill:rgb(254,254,254); fill-opacity:1.0; stroke-linejoin: miter">
<path d="M958.0075,812.63794L601.2833,813.29865L601.28326,813.29865C601.27374,813.2981,601.2642,813.2978,601.2546,813.2977L601.24945,813.2977C600.9216,813.2977,600.6537,813.5608,600.64825,813.8893L599.16565,903.99677C599.163,904.15796,599.2252,904.3135,599.33826,904.4284L599.3373,904.4284C599.4465,904.5399,599.5987,904.6091,599.767,904.6091C599.77545,904.6091,599.7838,904.6089,599.7921,904.6086L599.7981,904.6086L787.6575,907.12396L820.82184,907.568L818.38214,940.6456L798.7591,1206.6958L796.619,1235.7109L767.5251,1235.6259L596.74713,1235.128L596.74115,1235.128C596.7291,1235.1273,596.717,1235.127,596.7048,1235.127L596.7045,1235.127C596.37256,1235.127,596.10333,1235.396,596.10315,1235.728L596.0479,1324.618C596.0478,1324.7776,596.11115,1324.9307,596.22394,1325.0436L596.223,1325.0436C596.3319,1325.1531,596.4827,1325.2208,596.64935,1325.2208C596.65955,1325.2208,596.6696,1325.2206,596.6797,1325.2201L596.68567,1325.2201L795.3639,1326.3461L828.619,1326.5345L826.341,1359.7122L808.08685,1625.5583L806.7717,1644.7091L789.09076,1652.1826L597.9201,1732.9899C597.6937,1733.0856,597.5484,1733.3092,597.553,1733.5549L599.6108,1844.4249C599.6168,1844.7529,599.8846,1845.0153,600.212,1845.0153L600.21765,1845.0153C600.2829,1845.0146,600.34564,1845.0037,600.40436,1844.9839L600.4008,1844.9839L891.5473,1748.7567C891.78033,1748.6797,891.94183,1748.4695,891.95856,1748.2274L891.9585,1748.2274L958.6085,813.28217C958.6204,813.1155,958.5624,812.9513,958.44836,812.8291C958.3346,812.70715,958.1753,812.63794,958.0086,812.63794 Z"/>
</g>
<g style="fill:rgb(235,235,235); fill-opacity:1.0; stroke-linejoin: miter">
<path d="M31.551516,809.7639C31.388906,809.7639,31.233133,809.82983,31.119818,809.94666C31.005207,810.0648,30.94405,810.2248,30.950607,810.3893L34.991405,911.7605C35.004284,912.0837,35.27017,912.338,35.59214,912.338C35.596207,912.338,35.600277,912.33795,35.60436,912.3379C35.61486,912.3377,35.625298,912.3372,35.635662,912.3365L35.635303,912.3365L476.93085,905.67096C477.25354,905.6661,477.51373,905.4077,477.52295,905.08716L477.52292,905.08716L480.32202,814.4918L480.3223,814.47327L480.3223,814.4723C480.3223,814.1423,480.0564,813.8739,479.72638,813.87085L31.557093,809.7639 Z"/>
</g>
<g style="fill:rgb(235,235,235); fill-opacity:1.0; stroke-linejoin: miter">
<path d="M100.08301,1241.0609C99.92145,1241.0609,99.76667,1241.126,99.65357,1241.2413C99.54026,1241.3569,99.47834,1241.5134,99.48181,1241.6753L101.46141,1333.931C101.46844,1334.2584,101.73594,1334.5195,102.062584,1334.5195L102.069176,1334.5195C102.084694,1334.5194,102.100075,1334.5186,102.11529,1334.5173L102.114265,1334.5173L471.5333,1323.1179C471.8581,1323.1079,472.11618,1322.8417,472.11618,1322.5167L472.11618,1322.5157L472.11618,1322.5148L471.98657,1242.15C471.98657,1241.8181,471.71777,1241.5491,471.38593,1241.5486L100.083916,1241.0609 Z"/>
</g>
<g style="fill:rgb(235,235,235); fill-opacity:1.0; stroke-linejoin: miter">
<path d="M227.21906,1518.6418C227.21123,1518.6418,227.20335,1518.642,227.19545,1518.6423L101.81263,1523.4729C101.80883,1523.4728,101.805016,1523.4728,101.8012,1523.4728C101.79563,1523.4728,101.790054,1523.4729,101.784454,1523.473C101.4588,1523.4819,101.19943,1523.7484,101.19943,1524.0742L101.19948,1524.0742C101.19947,1524.0784,101.19951,1524.0826,101.19959,1524.0868L101.19954,1524.0868C101.199905,1524.1061,101.20118,1524.1251,101.20332,1524.1439L101.20231,1524.1439L114.76134,1776.6666C114.777,1776.9585,114.99852,1777.1915,115.279015,1777.2302L115.27786,1777.2302L480.4916,1852.3573C480.53186,1852.3656,480.57245,1852.3696,480.61282,1852.3696C480.75006,1852.3696,480.88455,1852.3226,480.99283,1852.2344C481.13293,1852.1201,481.21423,1851.949,481.21423,1851.7682L481.21423,1851.7726L482.13403,1748.7573L482.13403,1748.752L482.13403,1748.751C482.13403,1748.4589,481.92416,1748.209,481.6364,1748.1586L264.43893,1710.0994L240.30641,1705.8706L238.67104,1681.4248L227.81871,1519.2031C227.79752,1518.8862,227.53401,1518.6418,227.21906,1518.6418 Z"/>
</g>
<g style="fill:rgb(38,76,228); fill-opacity:1.0; stroke-linejoin: miter">
<path d="M477.74753,597.7608L-96.626045,602.3024L-96.62605,602.3024C-96.63596,602.30194,-96.645935,602.3017,-96.65595,602.3017C-96.66385,602.3017,-96.67178,602.3019,-96.67974,602.3022C-97.00255,602.31476,-97.25775,602.58014,-97.25775,602.9032L-97.25768,602.9032C-97.257706,602.9188,-97.257126,602.93445,-97.25592,602.95013L-97.25602,602.95013C-97.2551,602.9624,-97.25381,602.97455,-97.25215,602.9866L-97.25313,602.9866L6.8360205,1960.6063C6.8573313,1960.8843,7.0648317,1961.1047,7.3287196,1961.1522L7.328646,1961.1522L479.6511,2076.039C479.6981,2076.0505,479.7458,2076.0562,479.7932,2076.0562C479.92667,2076.0562,480.05783,2076.0117,480.1649,2075.9275C480.30997,2075.8135,480.39468,2075.6392,480.39468,2075.4546L480.39468,2075.4539L480.39618,2070.3816L480.43002,1955.873L480.4392,1924.6458L516.0855,1924.6572C516.24506,1924.6572,516.3981,1924.594,516.5109,1924.4812C516.6238,1924.3684,516.68713,1924.2153,516.68713,1924.0558L516.68713,1924.0548C516.68713,1923.7694,516.48645,1923.5232,516.20685,1923.4657L505.80304,1921.3256L78.603676,1833.4487L55.004894,1828.5944L53.71308,1804.5361L37.102715,1495.187L35.402847,1463.5286L67.08326,1462.3085L255.70927,1455.043L286.0428,1453.8745L288.069,1484.1628L299.3197,1652.3406C299.3395,1652.6367,299.5709,1652.8696,299.85843,1652.8988L299.85544,1652.8988L474.27545,1683.463C474.31,1683.4691,474.34473,1683.472,474.37927,1683.472C474.51968,1683.472,474.65692,1683.4229,474.7661,1683.3312C474.90216,1683.2169,474.9807,1683.0482,474.9807,1682.8706L474.9807,1682.8696L474.98068,1682.8641L474.83188,1666.6688L472.54037,1417.2646L472.2549,1386.1951C472.25372,1386.0339,472.18793,1385.88,472.07217,1385.7678C471.95978,1385.6588,471.80954,1385.5981,471.65344,1385.5981C471.6473,1385.5981,471.6411,1385.5981,471.63495,1385.5984L71.893654,1397.9344L71.89366,1397.9344L40.386467,1398.9067L39.710197,1367.3918L36.34279,1210.4607L35.657433,1178.5215L67.604034,1178.5634L67.60403,1178.5634L503.20383,1179.1354L503.2038,1179.1354L533.0816,1179.1757L533.0825,1179.1757C533.2419,1179.1757,533.39465,1179.1123,533.5074,1178.9998C533.62036,1178.887,533.68384,1178.7339,533.68384,1178.5742L533.68384,1178.5736L533.685,1176.6421L533.685,1176.6417L533.685,1176.6407C533.685,1176.3094,533.4171,1176.0405,533.0858,1176.0393L473.58475,1175.8157L473.70212,1144.5885L474.24628,999.8082L474.36288,968.7846L474.36288,968.78235L474.36288,968.7814C474.36288,968.6203,474.29828,968.46594,474.1835,968.3529C474.0709,968.242,473.91928,968.17993,473.76147,968.17993C473.75842,968.17993,473.7554,968.17993,473.75235,968.18L5.497229,975.2538L5.497228,975.2538L-24.963696,975.714L-26.177097,945.27374L-32.786114,779.47534L-32.786114,779.4753L-34.092434,746.7049L-1.2973226,747.00543L-1.2973236,747.00543L477.49887,751.39404L477.50436,751.39404C477.66287,751.39404,477.81506,751.33154,477.92773,751.21985C478.04172,751.1069,478.10583,750.95306,478.10583,750.7926L478.14557,726.3546L478.35373,598.3632C478.354,598.2027,478.2901,598.04877,478.17624,597.9356C478.0635,597.8236,477.9111,597.7608,477.75235,597.7608 Z"/>
</g>
<g style="fill:rgb(41,101,240); fill-opacity:1.0; stroke-linejoin: miter">
<path d="M535.32996,1387.328C535.17004,1387.328,535.0167,1387.3915,534.90375,1387.5049C534.79004,1387.619,534.72687,1387.7739,534.72833,1387.9349L534.99255,1416.6907L537.28406,1666.095L537.502,1689.8206C537.50385,1690.0212,537.6057,1690.2078,537.77344,1690.3179C537.8729,1690.3832,537.98785,1690.4165,538.10345,1690.4165C538.1828,1690.4165,538.26245,1690.4008,538.33765,1690.369L553.7734,1683.8445L746.75305,1602.2744C746.9632,1602.1855,747.1039,1601.9862,747.11896,1601.7607L747.1189,1601.7607L761.7109,1389.2515L761.7123,1389.2102L761.7123,1389.2092C761.7123,1388.8784,761.44507,1388.6096,761.11426,1388.6078L564.62384,1387.494L535.3332,1387.328 Z"/>
</g>
<g style="fill:rgb(41,101,240); fill-opacity:1.0; stroke-linejoin: miter">
<path d="M538.70074,966.25104C538.3764,966.25104,538.10986,966.5087,538.0998,966.8339L538.08826,967.2081L516.43195,967.53625L516.38617,967.5361L516.3841,967.5361C516.2249,967.5361,516.07227,967.5991,515.9595,967.7115C515.8462,967.82434,515.7826,967.9776,515.7826,968.1375L515.7826,968.1385C515.7826,968.2996,515.8472,968.454,515.96204,968.567C516.07465,968.67786,516.2262,968.7399,516.3839,968.7399C516.387,968.7399,516.39014,968.7399,516.39325,968.73987L516.43945,968.73914L536.81805,968.81573L536.7007,1000.04297L536.1565,1144.8231L536.05475,1171.8927C536.05414,1172.0526,536.11725,1172.2062,536.2301,1172.3195L536.2291,1172.3195C536.3381,1172.4293,536.4892,1172.4974,536.6562,1172.4974C536.66705,1172.4974,536.6779,1172.4972,536.68866,1172.4966L536.69403,1172.4966L564.98676,1172.5792L738.05316,1173.0858L738.055,1173.0858C738.2141,1173.0858,738.3669,1173.0226,738.4796,1172.9103C738.5825,1172.8077,738.6445,1172.6716,738.65485,1172.5276L738.6547,1172.5276L753.6099,969.7672L753.6116,969.72296L753.6116,969.722C753.6116,969.39294,753.34717,969.125,753.0182,969.1206L566.99915,966.6299L538.709,966.2511C538.70624,966.25104,538.7035,966.25104,538.70074,966.25104 Z"/>
</g>
<g style="fill:rgb(41,101,240); fill-opacity:1.0; stroke-linejoin: miter">
<path d="M1125.7789,592.6378L541.44037,597.2583C541.4308,597.2578,541.42114,597.25757,541.41144,597.25757L541.411,597.25757C541.0792,597.25757,540.81006,597.5262,540.8095,597.85803L540.6003,726.4563L540.5614,750.3515C540.56116,750.51135,540.6246,750.6648,540.7376,750.77783C540.8504,750.8906,541.00336,750.9539,541.1628,750.9539L541.16394,750.9539L569.8814,750.9008L992.13403,750.1199L1025.729,750.05786L1023.34015,783.5677L952.7392,1773.9355L951.25183,1794.8005L931.3905,1801.365L578.98987,1917.8381L578.9898,1917.8381L543.3051,1929.6334L543.3058,1929.6339L543.30035,1929.6339C543.0632,1929.7145,542.8926,1929.939,542.89246,1930.2034L542.8849,1955.8917L542.8511,2070.4L542.84924,2076.649C542.8492,2076.8352,542.93536,2077.011,543.08264,2077.125C543.189,2077.2073,543.3186,2077.2505,543.4503,2077.2505C543.501,2077.2505,543.5519,2077.2441,543.6019,2077.2312L985.6237,1962.3927C985.8669,1962.3295,986.04517,1962.1218,986.0708,1961.872L1126.382,593.3006C1126.3994,593.1305,1126.3436,592.96094,1126.2285,592.8345C1126.1145,592.70917,1125.953,592.6378,1125.7837,592.6378 Z"/>
</g>
<g style="fill:rgb(0,0,0); fill-opacity:1.0; stroke-linejoin: miter">
<path d="M286.085,299.15515L286.085,299.15515L82.108696,294.12152L51.227364,293.35944L51.065483,262.46912L49.517372,-33.001602L49.34974,-64.99721L81.34574,-64.99722L298.86813,-64.99756L332.43857,-64.997604L330.65192,-31.474731L327.5561,26.61316L325.95615,56.632996L295.89392,56.747833L143.78314,57.32892L175.48291,26.190979L171.61221,204.51862L139.79083,171.99905L290.74045,171.99884L324.56815,171.99878L322.51044,205.76382L318.6401,269.2721L316.77283,299.91248L286.085,299.15515 M287.65543,235.51678L255.10028,265.39984L258.9706,201.89157L290.74057,235.65656L139.7909,235.6568L107.26365,235.65686L107.969505,203.1372L111.8402,24.8096L112.5135,-6.2098083L143.53998,-6.3283386L295.65076,-6.9093933L263.9886,23.22525L267.08444,-34.862656L298.86826,-1.3398438L81.34586,-1.339508L113.17423,-33.33513L114.72234,262.13556L83.67913,230.48315L287.65543,235.51678 Z"/>
</g>
<g style="fill:rgb(0,0,0); fill-opacity:1.0; stroke-linejoin: miter">
<path d="M589.1007,8.042664L589.1007,8.042664L393.23193,11.24353L424.53607,-20.038757L422.04816,125.959564L390.92145,93.59601L528.847,96.619385L558.99023,97.28015L559.9618,127.41495L562.4501,204.59329L563.4977,237.08932L530.9867,237.44583L401.2368,238.86874L432.70203,206.07803L434.12427,253.02493L402.31,222.15982L592.84644,222.15976L561.02185,254.51132L558.5336,103.00006L589.4534,134.29343L451.883,130.38132L424.50363,129.60269L421.19238,102.413086L410.88364,17.76587L406.45355,-18.610687L443.09204,-17.904907L584.73285,-15.176666L552.48303,13.155609L556.9438,-27.272644L589.1007,8.042664 M588.06055,-55.606567L624.1792,-56.196777L620.2175,-20.29123L615.7567,20.137024L612.5689,49.029053L583.50696,48.46927L441.8661,45.740997L474.07446,10.07019L484.3832,94.71741L453.69257,66.74927L591.263,70.66141L621.6831,71.52649L622.18274,101.9548L624.671,253.46603L625.20233,285.81754L592.84644,285.81754L402.31,285.8176L371.4308,285.8176L370.49573,254.95248L369.07352,208.00558L368.0909,175.57071L400.53873,175.21487L530.2887,173.79196L498.82538,206.64456L496.3371,129.46622L527.4519,160.26175L389.52643,157.2385L357.86005,156.54434L358.39972,124.87491L360.8876,-21.123383L361.4121,-51.90268L392.19177,-52.4057L588.06055,-55.606567 Z"/>
</g>
<g style="fill:rgb(0,0,0); fill-opacity:1.0; stroke-linejoin: miter">
<path d="M887.0128,9.12915L887.0128,9.12915L689.4619,6.8036804L721.6465,-26.12082L726.92224,126.74097L695.47186,96.012024L840.9592,97.65552L878.08057,98.07489L871.99854,134.69696L859.8776,207.68042L855.4962,234.06195L828.75446,234.29352L693.8839,235.46149L725.2991,200.67212L730.08673,251.90057L699.05237,223.04022L886.39197,226.9046L853.90686,258.80426L853.4852,85.96768L884.3096,117.703064L745.07385,113.30701L717.72217,112.44342L714.47437,85.271454L706.1106,15.296478L701.7216,-21.4234L738.68567,-20.295074L886.2401,-15.7908325L853.4877,14.284454L855.6061,-24.436218L887.0128,9.12915 M887.7621,-54.52411L920.98376,-54.133057L919.1687,-20.95874L917.0503,17.761963L915.353,48.785217L884.29785,47.83725L736.74335,43.33304L769.31836,7.741516L777.6822,77.71649L747.0827,49.68097L886.3184,54.077057L917.06775,55.047882L917.14276,85.81241L917.56433,258.64905L917.6438,291.22046L885.0792,290.5487L697.7395,286.68433L669.34766,286.0987L666.7052,257.82397L661.91754,206.59546L658.6943,172.10608L693.3327,171.80609L828.20325,170.63812L797.0801,197.25122L809.2009,124.26776L840.2401,161.3092L694.7528,159.66565L664.35114,159.3222L663.3024,128.9367L658.0267,-23.92511L656.87683,-57.241974L690.21124,-56.84958L887.7621,-54.52411 Z"/>
</g>
</g>
</svg>