<?xml version="1.0" encoding="utf-8"?>
<svg xmlns="http://www.w3.org/2000/svg" xmlns:xlink="http://www.w3.org/1999/xlink" version= "1.1" width="2500px" height="2500px" viewBox="-710 -146 2500 2500">
<g id="layer1">
<g style="fill:rgb(228,77,38); fill-opacity:1.0; stroke-linejoin: miter">
<path d="M-241.07678,384.63492L-241.07678,384.63492L1332.6251,392.9269L1346.4772,392.99985L1345.2289,406.7958L1200.5228,2005.9988L1199.7306,2014.7546L1191.2601,2017.1096L532.2566,2200.345L528.6669,2201.343L525.10547,2200.2468L-112.1936,2004.0735L-120.41583,2001.5425L-121.12933,1992.9692L-253.82251,398.41232L-254.9751,384.5615L-241.07678,384.63492 M-241.21082,410.07962L-228.46503,396.30222L-95.77191,1990.8591L-104.70764,1979.7544L532.59143,2175.928L525.4403,2175.83L1184.4437,1992.5947L1175.1813,2003.7058L1319.8873,404.50272L1332.4911,418.3716L-241.21082,410.07962 Z"/>
</g>
<g style="fill:rgb(228,77,38); fill-opacity:1.0; stroke-linejoin: miter">
<path d="M1193.6816,544.5552L1193.6816,544.5552L1064.097,1918.9739L1063.2534,1927.9211L1054.5391,1930.1167L551.8294,2056.785L548.4948,2057.6252L545.1906,2056.671L17.996994,1904.4023L9.671646,1901.9978L8.8606415,1893.3704L-118.317245,540.4558L-119.62932,526.49805L-105.61008,526.5427L1181.0558,530.6384L1194.9897,530.68286L1193.6816,544.5552 M1168.349,542.16675L1180.9747,556.0835L-105.69107,551.9878L-92.9839,538.07446L34.193954,1890.989L25.057602,1879.9568L552.25116,2032.2251L545.61237,2032.1111L1048.322,1905.4426L1038.7642,1916.5857L1168.349,542.16675 Z"/>
</g>
<g style="fill:rgb(254,254,254); fill-opacity:1.0; stroke-linejoin: miter">
<path d="M1028.7856,751.0053L1028.7856,751.0053L50.30893,752.77905L62.957474,738.91925L116.04175,1330.3761L103.56673,1318.7924L784.0903,1329.3077L797.835,1329.52L796.5615,1343.2075L773.547,1590.5491L772.7369,1599.2552L764.3187,1601.6191L539.68646,1664.6974L536.0069,1665.7306L532.3669,1664.565L314.8174,1594.899L306.55542,1592.2532L306.00098,1583.5957L297.1504,1445.4072L308.59964,1457.2554L112.139984,1437.9019L126.09468,1424.6206L140.36584,1717.0837L131.52065,1705.5817L553.21497,1839.9366L545.91974,1839.8082L947.6185,1727.2373L938.3659,1738.5203L983.78595,1143.0155L996.19086,1156.7025L284.8281,1140.9994L273.6306,1140.7522L272.45645,1129.6138L251.68478,932.57446L250.20634,918.54987L264.3087,918.5182L1023.0845,916.816L1010.39606,929.1627L1016.0456,737.90717L1028.7856,751.0053 M1028.7395,725.5603L1041.8672,725.53644L1041.4796,738.65845L1035.8301,929.91406L1035.4662,942.2333L1023.1416,942.26086L264.36575,943.96313L276.98962,929.9069L297.7613,1126.9462L285.38965,1115.5605L996.75244,1131.2637L1010.1786,1131.5599L1009.1573,1144.9507L963.73724,1740.4554L963.05994,1749.3352L954.4846,1751.7384L552.7858,1864.3093L549.1189,1865.337L545.49054,1864.1809L123.79625,1729.8259L115.38147,1727.1449L114.95102,1718.3239L100.679855,1425.8606L99.9613,1411.134L114.63455,1412.5795L311.09418,1431.9329L321.85248,1432.9927L322.54343,1443.7809L331.39398,1581.9694L322.5775,1570.6661L540.12695,1640.332L532.8074,1640.1997L757.43964,1577.1215L748.21136,1588.1917L771.2259,1340.8501L783.69714,1354.7496L103.17357,1344.2344L91.72237,1344.0575L90.69859,1332.6508L37.614304,741.19385L36.372574,727.3592L50.262817,727.334L1028.7395,725.5603 Z"/>
</g>
<g style="fill:rgb(254,254,254); fill-opacity:1.0; stroke-linejoin: miter">
<path d="M566.71826,744.2921L566.71826,744.2921L566.7184,744.2927L566.74817,744.79297L566.7385,745.2937L563.2849,925.1341C563.14996,932.15924,557.3456,937.74493,550.32043,937.61C543.2953,937.4751,537.7096,931.6707,537.84454,924.6455L537.84454,924.6455L541.2982,744.8051L541.31836,745.806L541.31836,745.8054C540.90045,738.7914,546.2477,732.76666,553.2617,732.34875C560.2757,731.9309,566.3004,737.27814,566.71826,744.2921 Z"/>
</g>
<g style="fill:rgb(254,254,254); fill-opacity:1.0; stroke-linejoin: miter">
<path d="M559.4961,1133.8591L559.4961,1133.8591L559.4961,1133.8597L559.51447,1134.1678L559.5179,1134.4758L561.64294,1326.8811C561.7206,1333.9072,556.0877,1339.6658,549.0617,1339.7433C542.03564,1339.821,536.27704,1334.1882,536.19946,1327.1621L536.19946,1327.1621L534.07434,1134.7568L534.09607,1135.373L534.09607,1135.3723C533.6782,1128.3584,539.02545,1122.3336,546.0394,1121.9158C553.05347,1121.4978,559.0782,1126.8451,559.4961,1133.8591 Z"/>
</g>
<g style="fill:rgb(254,254,254); fill-opacity:1.0; stroke-linejoin: miter">
<path d="M554.0427,1650.096L554.0427,1650.096L561.453,1850.4504C561.7127,1857.472,556.2311,1863.3748,549.2094,1863.6344C542.18774,1863.894,536.28503,1858.4125,536.0253,1851.3909L536.0253,1851.3909L528.61505,1651.0364C528.35535,1644.0146,533.83704,1638.112,540.85864,1637.8523C547.8803,1637.5925,553.783,1643.0742,554.0427,1650.096 Z"/>
</g>
<g style="fill:rgb(254,254,254); fill-opacity:1.0; stroke-linejoin: miter">
<path d="M559.65674,1146.5247C559.5144,1146.5247,559.3776,1146.5808,559.2762,1146.6812C559.1719,1146.7843,559.11383,1146.9254,559.1155,1147.0721L561.09033,1325.8773C561.0936,1326.1742,561.3353,1326.4128,561.63184,1326.4128L561.63477,1326.4128C561.6418,1326.4128,561.6488,1326.4126,561.65576,1326.4124L561.6614,1326.4124L784.0819,1329.8491L797.2417,1330.0524L796.0224,1343.1573L773.0079,1590.4989L772.23224,1598.8345L764.17236,1601.0978L554.2833,1660.037C554.0229,1660.1101,553.8564,1660.3643,553.8933,1660.6322L553.8906,1660.6322L560.363,1835.63C560.3738,1835.9215,560.6133,1836.1515,560.9038,1836.1515C560.9072,1836.1515,560.91064,1836.1515,560.91406,1836.1514C560.9626,1836.1505,561.0095,1836.1432,561.05414,1836.1304L561.0502,1836.1304L939.18933,1730.1627C939.4101,1730.1008,939.56647,1729.9073,939.5832,1729.6815L939.5831,1729.6815L983.30457,1156.4482L983.3061,1156.4071L983.3061,1156.4061C983.3061,1156.1117,983.0709,1155.8712,982.7766,1155.8647L559.6689,1146.5248C559.66486,1146.5247,559.66077,1146.5247,559.65674,1146.5247 Z"/>
</g>
<g style="fill:rgb(254,254,254); fill-opacity:1.0; stroke-linejoin: miter">
<path d="M1015.657,750.4877L566.64484,751.3026C566.6359,751.30206,566.62695,751.30176,566.6179,751.3017L566.6126,751.3017C566.318,751.3017,566.07697,751.5376,566.07135,751.83276L562.8835,917.8368C562.8807,917.9822,562.9365,918.12256,563.0383,918.2264L563.0374,918.2264C563.13574,918.3271,563.273,918.3896,563.42487,918.3896C563.4362,918.3896,563.4475,918.3892,563.4587,918.38855L563.453,918.38855L1010.76117,917.38605C1011.05475,917.3854,1011.2933,917.15125,1011.3012,916.8596L1016.1992,751.0451C1016.20355,750.8986,1016.14825,750.7566,1016.0461,750.65155C1015.9441,750.54675,1015.8041,750.4877,1015.6579,750.4877 Z"/>
</g>
<g style="fill:rgb(227,77,37); fill-opacity:1.0; stroke-linejoin: miter">
<path d="M-119.02141,527.0533L-105.61184,527.096L1181.0541,531.1917L1194.3821,531.2342L1193.1309,544.50323L1063.5463,1918.922L1062.7394,1927.4801L1054.4039,1929.5802L551.6942,2056.2483L548.50433,2057.0522L545.3441,2056.1394L18.150522,1903.8708L18.150518,1903.8708L10.187231,1901.5709L9.411493,1893.3186L9.411494,1893.3186L-117.766396,540.40405L-119.02141,527.0533 Z M-227.31245,409.59958C-227.46661,409.59958,-227.61383,409.6639,-227.71857,409.77713C-227.82397,409.89108,-227.87668,410.04407,-227.8638,410.19876L-97.036766,1982.3323C-97.016396,1982.5771,-96.83912,1982.7726,-96.61044,1982.8256L-96.61141,1982.8256L528.8677,2175.3616C528.921,2175.378,528.9758,2175.386,529.03033,2175.386C529.08185,2175.386,529.13306,2175.379,529.1825,2175.3647L529.17865,2175.3647L1176.1217,1995.4839C1176.3452,1995.4218,1176.5045,1995.2275,1176.5245,1994.9996L1319.1901,418.3495L1319.1923,418.29962L1319.1923,418.2986C1319.1923,417.99417,1318.9464,417.74695,1318.642,417.74533L-227.30951,409.59958 Z"/>
</g>
<g style="fill:rgb(227,77,37); fill-opacity:1.0; stroke-linejoin: miter">
<path d="M560.398,1860.6106L560.398,1860.6106L559.4675,2055.405C559.43396,2062.4314,553.71075,2068.1,546.6844,2068.0667C539.658,2068.0332,533.98926,2062.3098,534.0228,2055.2834L534.0228,2055.2834L534.9533,1860.489C534.9869,1853.4626,540.7101,1847.7938,547.73645,1847.8274C554.7628,1847.861,560.4316,1853.5842,560.398,1860.6106 Z"/>
</g>
<g style="fill:rgb(227,77,37); fill-opacity:1.0; stroke-linejoin: miter">
<path d="M527.5035,1627.5048L527.5035,1627.5048L517.6406,1351.647C517.3896,1344.625,522.8785,1338.7291,529.90045,1338.478C536.9224,1338.2269,542.8184,1343.7158,543.06946,1350.7378L543.06946,1350.7378L552.9323,1626.5956C553.18335,1633.6176,547.69446,1639.5134,540.6725,1639.7645C533.6505,1640.0156,527.7545,1634.5267,527.5035,1627.5048 Z"/>
</g>
<g style="fill:rgb(227,77,37); fill-opacity:1.0; stroke-linejoin: miter">
<path d="M523.4245,1110.5107L523.4245,1110.5107L521.2419,955.8217C521.14276,948.79596,526.7579,943.02014,533.7836,942.92096C540.8094,942.82184,546.58527,948.437,546.6844,955.46277L546.6844,955.46277L548.867,1110.1517C548.9662,1117.1775,543.351,1122.9534,536.32526,1123.0525C529.2995,1123.1516,523.5236,1117.5365,523.4245,1110.5107 Z"/>
</g>
<g style="fill:rgb(227,77,37); fill-opacity:1.0; stroke-linejoin: miter">
<path d="M521.71185,716.56195L521.71185,716.56195L519.35126,519.4822C519.2671,512.45624,524.89453,506.69232,531.9205,506.60815C538.9464,506.524,544.7103,512.1514,544.7945,519.17737L544.7945,519.17737L547.1551,716.25714C547.23926,723.2831,541.6118,729.047,534.5859,729.13116C527.55994,729.21533,521.796,723.5879,521.71185,716.56195 Z"/>
</g>
<g style="fill:rgb(227,77,37); fill-opacity:1.0; stroke-linejoin: miter">
<path d="M530.605,942.6705L278.50348,943.23706L278.50345,943.23706C278.49188,943.23645,278.48022,943.23615,278.4685,943.23615C278.45758,943.23615,278.4466,943.23645,278.43558,943.23694C278.06458,943.2543,277.7727,943.5601,277.7727,943.9315L277.7728,943.9315C277.7728,943.9321,277.7728,943.9327,277.7728,943.9333L277.7727,943.9333C277.77277,943.97986,277.77737,944.0253,277.78616,944.0693L277.7834,944.0693L295.89557,1115.8816C295.93304,1116.237,296.2331,1116.5042,296.5866,1116.5042C296.59387,1116.5042,296.60117,1116.504,296.6085,1116.5038L296.61145,1116.5038L529.107,1121.6371C529.1121,1121.6372,529.1172,1121.6372,529.1223,1121.6372C529.3114,1121.6372,529.49255,1121.5603,529.62384,1121.4236C529.75867,1121.2832,529.8285,1121.0928,529.81635,1120.8986L529.8163,1120.8976C529.8027,1120.6803,529.6881,1120.4818,529.50665,1120.3615C526.3067,1118.2389,524.17804,1114.6273,524.1198,1110.501L521.9372,955.8119C521.85815,950.2082,525.625,945.44415,530.79456,944.0368C531.13074,943.94525,531.3473,943.619,531.3011,943.2737C531.2549,942.92834,530.9603,942.6705,530.6119,942.6705 Z"/>
</g>
<g style="fill:rgb(227,77,37); fill-opacity:1.0; stroke-linejoin: miter">
<path d="M-91.67188,551.57794C-91.7995,551.57794,-91.92127,551.63165,-92.00737,551.72595C-92.09381,551.8206,-92.13626,551.9473,-92.12427,552.07495L32.930477,1882.4048C32.94944,1882.6066,33.097942,1882.7661,33.28754,1882.8068L33.28721,1882.8068L534.03186,2027.4369C534.07324,2027.4489,534.11566,2027.4547,534.1578,2027.4547C534.25525,2027.4547,534.3514,2027.4233,534.4311,2027.3634C534.5452,2027.2776,534.6124,2027.1431,534.6124,2027.0002L534.6124,2027.0015L535.4062,1860.8253C535.40717,1860.6267,535.27893,1860.4504,535.08966,1860.3901L123.934204,1729.393L123.93421,1729.393L115.82,1726.8077L115.40493,1718.3018L101.133766,1425.8385L100.44088,1411.638L100.44088,1411.638L114.590004,1413.0317L114.59,1413.0317L311.04962,1432.3851L321.42365,1433.4071L322.0899,1443.8099L330.386,1573.3419C330.39923,1573.5487,330.549,1573.715,330.74298,1573.7571L330.73965,1573.7571L535.15375,1639.2175C535.19916,1639.232,535.2459,1639.2393,535.2924,1639.2393C535.3875,1639.2393,535.4815,1639.2094,535.56024,1639.1519C535.6775,1639.0663,535.7468,1638.9299,535.7468,1638.7848L535.7468,1638.7838C535.7468,1638.601,535.63715,1638.4358,535.4685,1638.3649C531.1983,1636.5692,528.134,1632.4208,527.95764,1627.4885L518.09485,1351.632L518.0948,1351.6296C518.0842,1351.3337,518.08417,1351.0425,518.0943,1350.7528L518.0892,1350.7528C518.10175,1350.7041,518.10645,1350.6527,518.1019,1350.6001C518.08203,1350.3677,517.8894,1350.1881,517.6561,1350.1844L103.18059,1343.78L92.138435,1343.6095L91.15122,1332.6101L38.066933,741.1532L36.86956,727.81274L50.26364,727.78845L526.641,726.9259L526.7233,726.9182L526.7286,726.91724C526.9046,726.8845,527.0449,726.75146,527.0871,726.57745C527.1293,726.40344,527.06537,726.22095,526.9239,726.11127C524.0673,723.89703,522.2129,720.4497,522.16626,716.5565L520.21893,553.9794L520.21893,553.97876L520.2189,553.9743L520.21893,553.9743C520.21655,553.72595,520.0149,553.5251,519.7659,553.5243L-91.670364,551.57794 Z"/>
</g>
<g style="fill:rgb(240,101,41); fill-opacity:1.0; stroke-linejoin: miter">
<path d="M676.3762,1870.4276C682.87915,1870.4276,688.2735,1875.5706,688.5276,1882.1257L688.5291,1882.1501L688.52856,1882.1501C688.7756,1888.8557,683.5467,1894.4977,676.8389,1894.7577L676.83905,1894.7577C676.68286,1894.7637,676.5135,1894.7671,676.35895,1894.7671C669.86285,1894.7671,664.47296,1889.6349,664.2084,1883.0896L664.20795,1883.0896L664.2076,1883.0681C663.94727,1876.3524,669.18054,1870.6973,675.89624,1870.437L675.8961,1870.437C676.0523,1870.431,676.222,1870.4276,676.3762,1870.4276 Z M545.2123,553.5064C545.06476,553.5064,544.9233,553.5653,544.81934,553.67017C544.71497,553.77545,544.6572,553.9182,544.659,554.0664L546.60175,716.2638C546.6491,720.2135,544.8099,723.7463,541.91876,726.00616C541.73254,726.15173,541.65936,726.3994,541.7365,726.6228C541.7999,726.8064,541.95337,726.9402,542.1372,726.9818L542.1318,726.9818C542.17346,726.99164,542.2159,726.99646,542.25824,726.99646C542.2696,726.99646,542.2809,726.99615,542.2922,726.9954L542.28674,726.9954L1028.7405,726.11365L1041.2972,726.0908L1040.9265,738.6421L1035.277,929.8977L1034.929,941.68115L1023.1404,941.7075L537.26764,942.7986L537.2602,942.7976L537.26,942.7976L537.2419,942.79926L537.2365,942.79926C537.21533,942.8003,537.19446,942.8025,537.17395,942.80585L537.1686,942.80585L537.161,942.8065L537.15564,942.8075C536.8739,942.8587,536.6778,943.1164,536.7035,943.4016C536.72675,943.6595,536.9244,943.8628,537.17377,943.8994L537.1684,943.8994C542.2702,945.28925,546.0528,949.9204,546.1311,955.4706L548.3137,1110.1595C548.37714,1114.6488,546.00165,1118.6051,542.4118,1120.7665C542.19885,1120.8947,542.0976,1121.1492,542.1641,1121.3887C542.23065,1121.6282,542.44867,1121.794,542.69727,1121.794L542.69604,1121.794L996.74023,1131.8169L1009.5824,1132.1002L1008.6055,1144.9086L963.1855,1740.4133L962.53766,1748.9069L954.33527,1751.2056L954.3353,1751.2056L560.2412,1861.6464L560.2417,1861.6467L560.2361,1861.6467C560.00653,1861.7133,559.8384,1861.9246,559.83716,1862.1755L559.0423,2028.585C559.04156,2028.7322,559.0996,2028.8737,559.2034,2028.978C559.30725,2029.0824,559.4484,2029.141,559.59564,2029.141C559.64124,2029.141,559.68665,2029.1354,559.73083,2029.1243L1039.743,1908.176C1039.9723,1908.1183,1040.1375,1907.9221,1040.1588,1907.6904L1040.1587,1907.6904L1167.5919,556.09204L1167.5944,556.0401L1167.5944,556.0391C1167.5944,555.7342,1167.3477,555.48676,1167.0427,555.4858L545.2141,553.5064 Z"/>
</g>
<g style="fill:rgb(235,235,235); fill-opacity:1.0; stroke-linejoin: miter">
<path d="M541.1613,751.4143L64.22949,752.2798L64.22946,752.2798C64.21955,752.2792,64.20956,752.2789,64.19951,752.2789C64.192635,752.2789,64.18573,752.279,64.1788,752.2793C63.924637,752.2902,63.724194,752.49945,63.724194,752.75385L63.724274,752.75385C63.724247,752.7683,63.724876,752.7828,63.726177,752.7973L114.54491,1319.0128C114.56697,1319.2587,114.77319,1319.4453,115.01766,1319.4453C115.02482,1319.4453,115.032,1319.4452,115.039215,1319.4448C115.040016,1319.4448,115.04082,1319.4447,115.04162,1319.4447L115.04277,1319.4447L536.1735,1325.9529L536.18085,1325.9529C536.3054,1325.9529,536.4252,1325.9039,536.5141,1325.8164C536.60474,1325.7272,536.6558,1325.6052,536.6558,1325.478L536.6558,1325.477L536.65576,1325.4718L534.6791,1146.5043C534.6791,1146.2461,534.4728,1146.0352,534.2146,1146.0294L284.83856,1140.5245L274.05914,1140.2866L272.9288,1129.564L252.15714,932.52466L250.73389,919.0237L264.30975,918.99316L537.97504,918.3802C538.23425,918.3796,538.4446,918.1715,538.4489,917.9133L538.44885,917.9133L541.637,751.8984C541.63947,751.7707,541.59045,751.6474,541.5009,751.55634C541.41156,751.4655,541.2896,751.4143,541.16223,751.4143 Z"/>
</g>
<g style="fill:rgb(235,235,235); fill-opacity:1.0; stroke-linejoin: miter">
<path d="M126.81327,1438.8723C126.69197,1438.8723,126.57457,1438.9188,126.48585,1439.0033C126.3858,1439.0985,126.33216,1439.2325,126.33889,1439.3705L139.46101,1708.2869C139.47157,1708.5033,139.62567,1708.6794,139.82764,1708.7263L139.82623,1708.7263L535.2475,1834.7115C535.29474,1834.7266,535.3433,1834.734,535.3917,1834.734C535.4912,1834.734,535.5896,1834.7026,535.67194,1834.6425C535.7943,1834.553,535.86664,1834.4106,535.86664,1834.259L535.86664,1834.258L535.86633,1834.2405L529.5511,1663.4946C529.5442,1663.2949,529.4126,1663.1201,529.22125,1663.0588L314.96228,1594.4467L307.00873,1591.8995L306.47498,1583.5653L298.31534,1456.1661L298.31543,1456.1661C298.30124,1455.935,298.1212,1455.7458,297.8879,1455.7229L126.859856,1438.8746C126.8443,1438.873,126.82875,1438.8723,126.81327,1438.8723 Z"/>
</g>
<g style="fill:rgb(240,101,41); fill-opacity:1.0; stroke-linejoin: miter">
<path d="M543.07996,1350.5991C542.9638,1350.5991,542.8523,1350.6458,542.7709,1350.7289C542.68787,1350.8136,542.6433,1350.9287,542.6475,1351.0472L552.4999,1626.6111C552.61633,1629.8674,551.45557,1632.872,549.46564,1635.1454C549.35376,1635.2732,549.3271,1635.4546,549.3972,1635.6093C549.4501,1635.7258,549.55066,1635.8109,549.6697,1635.8457L549.6642,1635.8457C549.7061,1635.8585,549.749,1635.8646,549.79144,1635.8646C549.8367,1635.8646,549.88135,1635.8577,549.9237,1635.8442L549.91815,1635.8442L749.1385,1579.902C749.311,1579.8535,749.4357,1579.7037,749.45233,1579.5254L770.3832,1354.5782L770.3851,1354.5382L770.3851,1354.5372C770.3851,1354.3009,770.1954,1354.1083,769.95905,1354.1046L543.0867,1350.5991 Z"/>
</g>
<g style="fill:rgb(240,101,41); fill-opacity:1.0; stroke-linejoin: miter">
<path d="M652.855,1903.708L652.855,1903.708L718.1782,1847.5525C723.50653,1842.9719,731.5391,1843.5781,736.1196,1848.9065C740.7001,1854.2346,740.0939,1862.2673,734.7656,1866.8478L734.7656,1866.8478L669.4423,1923.0034C664.114,1927.584,656.0814,1926.9778,651.501,1921.6494C646.92053,1916.3213,647.5267,1908.2886,652.855,1903.708 Z"/>
</g>
<g style="fill:rgb(240,101,41); fill-opacity:1.0; stroke-linejoin: miter">
<path d="M680.07324,1861.6285L679.3163,1861.8864Q678.8477,1862.0459,678.3768,1862.216L678.3768,1862.216Q679.18243,1861.8595,680.06647,1861.6285 Z M685.49426,1859.6901C682.7224,1859.6901,679.93115,1860.5918,677.5917,1862.4492Q677.51764,1862.508,677.4481,1862.563L677.44135,1862.563Q670.73,1865.1198,663.5289,1869.7723L663.5222,1869.7723Q663.15,1869.9977,662.763,1870.2576L662.76105,1870.2588Q660.7029,1871.641,652.8436,1877.7482L652.8371,1877.7482L643.82477,1883.7084L643.20886,1884.1157L642.64435,1884.5914Q637.5235,1888.9069,636.32306,1889.7465L636.3213,1889.7465C630.5184,1893.6,628.8888,1901.4175,632.6919,1907.2732C635.1291,1911.0258,639.2096,1913.0676,643.37366,1913.0676C645.74854,1913.0676,648.15063,1912.4034,650.2905,1911.0137Q650.5863,1910.8217,650.9067,1910.5975L650.90704,1910.5973Q652.9388,1909.1761,658.4485,1904.5477L658.4419,1904.5477L667.3226,1898.6746L667.7287,1898.406L668.11456,1898.106Q674.7067,1892.9796,676.5447,1891.6636L676.5379,1891.6636L677.19165,1891.239Q682.8477,1887.5658,687.5114,1885.9756L687.5046,1885.9756L687.46857,1885.9824L687.46857,1885.9824Q689.4568,1885.309,691.34515,1883.9578L691.3465,1883.9569Q692.1289,1883.397,693.4136,1882.377C698.91644,1878.0078,699.8356,1870.0051,695.4665,1864.5022C692.95483,1861.3387,689.2424,1859.6901,685.49426,1859.6901 Z"/>
</g>
<g style="fill:rgb(254,254,254); fill-opacity:1.0; stroke-linejoin: miter">
<path d="M556.49866,1830.9978C555.5711,1830.9978,554.62915,1831.0999,553.6864,1831.3126Q551.6044,1831.7825,550.1302,1832.2632L550.13,1832.2632Q549.5314,1832.4584,548.9877,1832.6692L548.9822,1832.6692Q548.7208,1832.7633,548.4543,1832.8691L548.452,1832.87Q547.124,1833.3977,542.1435,1835.6187L542.1384,1835.6187Q540.75714,1836.2019,540.0761,1836.4727L540.07605,1836.4727Q539.12555,1836.8472,538.7217,1836.9425L538.7201,1836.9425C531.8553,1838.3547,527.42267,1845.0562,528.8152,1851.9299C530.03754,1857.964,535.3431,1862.1287,541.27155,1862.1287C542.1092,1862.1287,542.9593,1862.0455,543.8121,1861.8728Q544.1859,1861.797,544.5693,1861.7064L544.5692,1861.7064Q546.7674,1861.1874,549.44775,1860.1289L549.46967,1860.1202L549.4737,1860.1187Q550.4677,1859.7236,552.26385,1858.9635L552.3765,1858.9158L552.5264,1858.8489L552.54596,1858.8401L552.5461,1858.8401Q555.76666,1857.404,557.1001,1856.8307L557.0945,1856.8307L557.16956,1856.8157L558.099,1856.431L558.0934,1856.431Q558.4544,1856.3217,559.2875,1856.1337C566.1416,1854.5869,570.44415,1847.7767,568.89746,1840.9226C567.56354,1835.0112,562.31445,1830.9978,556.49866,1830.9978 Z"/>
</g>
<g style="fill:rgb(254,254,254); fill-opacity:1.0; stroke-linejoin: miter">
<path d="M565.5414,1853.2834C565.4993,1853.2834,565.4566,1853.2911,565.41504,1853.3074Q564.9844,1853.4758,562.85126,1854.1497L562.8347,1854.1549L562.81976,1854.1613Q559.81824,1855.4403,558.9535,1855.6984L558.95374,1855.6984L558.9525,1855.6987Q554.57434,1857.0186,549.18835,1858.8523L549.17053,1858.8584L549.1528,1858.8667L546.5142,1860.1047C546.34076,1860.1862,546.2661,1860.3927,546.34753,1860.5662C546.4066,1860.692,546.53156,1860.7659,546.6619,1860.7659C546.71124,1860.7659,546.7614,1860.7552,546.809,1860.7329L549.4169,1859.5093L549.412,1859.5093Q554.7897,1857.6785,559.1516,1856.3634L559.15186,1856.3634Q560.0498,1856.0956,563.0645,1854.8113L563.06024,1854.8113Q565.2168,1854.1301,565.66785,1853.9536C565.8463,1853.8838,565.9344,1853.6825,565.86456,1853.504C565.811,1853.3671,565.68005,1853.2834,565.5414,1853.2834 Z"/>
</g>
<g style="fill:rgb(254,254,254); fill-opacity:1.0; stroke-linejoin: miter">
<path d="M582.0088,1853.0884L582.0088,1853.0884L547.0732,1866.1958L545.5114,1866.7817L544.1628,1865.8L520.3829,1848.4897C519.0001,1847.4832,518.6951,1845.5464,519.7017,1844.1636C520.7083,1842.7808,522.64526,1842.4758,524.028,1843.4824L524.028,1843.4824L547.8079,1860.7927L544.8975,1860.397L579.8331,1847.2896C581.43445,1846.6887,583.2196,1847.4998,583.82043,1849.1011C584.42126,1850.7024,583.6101,1852.4875,582.0088,1853.0884 Z"/>
</g>
<g style="fill:rgb(254,254,254); fill-opacity:1.0; stroke-linejoin: miter">
<path d="M466.27908,1335.8677L466.27908,1335.8677L580.8774,1336.9318C584.45337,1336.965,587.3254,1339.8907,587.2922,1343.4668C587.259,1347.0428,584.3331,1349.9147,580.75714,1349.8815L580.75714,1349.8815L466.15884,1348.8174C462.58286,1348.7842,459.71085,1345.8584,459.74405,1342.2823C459.77725,1338.7063,462.7031,1335.8345,466.27908,1335.8677 Z"/>
</g>
<g style="fill:rgb(0,0,0); fill-opacity:1.0; stroke-linejoin: miter">
<path d="M-94.58652,261.65286L-94.58652,261.65286L-93.68122,-32.703094L-93.675026,-34.718628L-91.659485,-34.718536L1.2230072,-34.713676L3.3218079,-34.713562L3.2431183,-32.61624L-0.36357117,63.512024L-2.3550873,61.41478L93.71796,62.77852L91.667755,64.77789L92.71451,-31.12535L92.736115,-33.107895L94.71872,-33.124863L189.23874,-33.934433L191.29599,-33.952057L191.27762,-31.894775L188.65607,261.27115L188.63779,263.3136L186.59558,263.27435L98.88461,261.58762L96.923096,261.54987L96.90195,259.5881L95.855896,162.50815L97.84549,164.50775L-0.30271912,162.95609L1.7508545,160.94461L1.2529602,262.52072L1.2430115,264.55124L-0.7874298,264.5324L-92.58365,263.6806L-94.59271,263.662L-94.58652,261.65286 M-90.54325,261.66528L-92.54613,259.6375L-0.7499237,260.4893L-2.7902985,262.50095L-2.292389,160.92477L-2.2823486,158.88098L-0.23881531,158.91327L97.90939,160.46497L99.87775,160.49606L99.89896,162.46457L100.94504,259.54456L98.96237,257.5451L186.67337,259.2318L184.61288,261.235L187.23447,-31.930939L189.27335,-29.891296L94.75336,-29.08171L96.75757,-31.081223L95.710815,64.82202L95.68866,66.850174L93.66058,66.821396L-2.4124756,65.45766L-4.481598,65.4283L-4.4039917,63.360428L-0.7973175,-32.76783L1.2227783,-30.670395L-91.65969,-30.675232L-89.63795,-32.690666L-90.54325,261.66528 Z"/>
</g>
<g style="fill:rgb(0,0,0); fill-opacity:1.0; stroke-linejoin: miter">
<path d="M328.86505,256.9072L328.86505,256.9072L332.15955,63.914307L334.1994,65.97037L240.83038,66.825745L238.77713,66.84451L238.79027,64.79123L239.39291,-29.381317L239.40567,-31.37497L241.39926,-31.389969L506.7489,-33.39009L508.78033,-33.405396L508.78577,-31.373886L509.04364,65.002045L509.04913,67.0607L506.99072,67.02887L421.4013,65.70413L423.454,63.65207L426.43216,260.0247L426.46436,262.14645L424.34344,262.0759L330.81912,258.96225L328.8311,258.89603L328.86505,256.9072 M332.90775,256.97623L330.95364,254.92123L424.47803,258.03488L422.3893,260.08603L419.41116,63.71338L419.37958,61.62906L421.46387,61.661316L507.05328,62.986053L505.00037,65.01285L504.7425,-31.363083L506.77936,-29.346893L241.42975,-27.346786L243.43611,-29.355438L242.83347,64.81711L240.79335,62.782593L334.16238,61.927246L336.23767,61.908234L336.20227,63.983307L332.90775,256.97623 Z"/>
</g>
<g style="fill:rgb(0,0,0); fill-opacity:1.0; stroke-linejoin: miter">
<path d="M556.42316,260.56934L556.42316,260.56934L557.99396,-29.252472L558.00446,-31.192368L559.9432,-31.261856L664.9688,-35.02662L666.1444,-35.068756L666.76196,-34.06752L731.69116,71.20772L728.2145,71.26718L786.5029,-30.904694L787.06647,-31.89244L788.20325,-31.923798L892.2638,-34.794846L894.3384,-34.85208L894.3412,-32.77678L894.7484,259.80975L894.75116,261.81775L892.7433,261.83417L798.3254,262.6056L796.3344,262.62183L796.2878,260.6314L792.98145,119.57399L796.714,120.60274L732.1405,223.30013L730.5591,225.81511L728.7999,223.42107L655.985,124.32829L659.6354,123.09523L662.1315,263.42743L662.1691,265.5442L660.05286,265.4842L558.3875,262.60114L556.4125,262.54517L556.42316,260.56934 M560.46643,260.59125L558.50214,258.5595L660.1675,261.4425L658.08887,263.49927L655.5927,123.16716L655.47974,116.812454L659.24316,121.9341L732.0581,221.0269L728.7176,221.14787L793.29114,118.450516L796.86633,112.7646L797.0237,119.47923L800.32996,260.53668L798.29236,258.56244L892.7102,257.79102L890.7051,259.81537L890.298,-32.77115L892.37537,-30.753082L788.3147,-27.882034L790.01495,-28.901138L731.72644,73.27077L730.0382,76.229996L728.24976,73.33023L663.32056,-31.945023L665.11365,-30.985916L560.088,-27.22116L562.0372,-29.230545L560.46643,260.59125 Z"/>
</g>
<g style="fill:rgb(0,0,0); fill-opacity:1.0; stroke-linejoin: miter">
<path d="M945.9436,254.97641L945.9436,254.97641L949.37024,-29.01075L949.3943,-31.006466L951.39014,-31.008007L1043.7817,-31.079723L1045.83,-31.08131L1045.8048,-29.033249L1043.357,170.30783L1041.3649,168.2616L1184.1724,170.3281L1186.2329,170.35788L1186.1637,172.41742L1183.2538,259.01602L1183.187,261.00308L1181.1991,260.96945L947.93085,257.02216L945.9193,256.98816L945.9436,254.97641 M949.9866,255.0252L947.99927,252.97949L1181.2675,256.9268L1179.2128,258.88025L1182.1227,172.28162L1184.1139,174.37094L1041.3063,172.30444L1039.2893,172.27527L1039.3141,170.25821L1041.7618,-29.082897L1043.7849,-27.036423L951.3933,-26.96471L953.4132,-28.961964L949.9866,255.0252 Z"/>
</g>
<g style="fill:rgb(0,0,0); fill-opacity:1.0; stroke-linejoin: miter">
<path d="M1107.7114,539.8219L1107.7114,539.8219L1107.7115,539.8225C1107.794,540.93604,1106.9583,541.9055,1105.8447,541.9879C1104.7312,542.07043,1103.7617,541.2346,1103.6792,540.1211L1103.6792,540.1211L1103.6792,540.1205C1103.5967,539.00696,1104.4325,538.0375,1105.546,537.95496C1106.6595,537.87256,1107.629,538.7084,1107.7114,539.8219 Z"/>
</g>
<g style="fill:rgb(0,0,0); fill-opacity:1.0; stroke-linejoin: miter">
<path d="M1041.7363,-27.427526L953.417,-27.357977C953.40857,-27.358568,953.4,-27.358894,953.3915,-27.358946C953.3907,-27.358952,953.3899,-27.358953,953.38904,-27.358953C953.1742,-27.358953,952.9991,-27.186129,952.99646,-26.970997L952.9964,-26.966259L952.9964,-26.965939L949.6182,253.00879C949.61694,253.11375,949.6577,253.21486,949.7315,253.28954L949.7305,253.28954C949.8018,253.36218,949.90106,253.40724,950.01086,253.40724C950.01733,253.40724,950.0238,253.40709,950.0302,253.40677L950.0397,253.40677L1179.273,257.2868C1179.2751,257.28683,1179.2773,257.28687,1179.2795,257.28687C1179.3826,257.28687,1179.4813,257.24646,1179.5548,257.1742C1179.627,257.1032,1179.669,257.0072,1179.672,256.90634L1182.4459,174.35532L1182.4462,174.34213L1182.4462,174.34113C1182.4462,174.12646,1182.2738,173.95158,1182.0592,173.94847L1041.312,171.91179L1039.6868,171.88828L1039.7068,170.26303L1042.1294,-27.03001C1042.1307,-27.13504,1042.0898,-27.23621,1042.016,-27.31091C1041.9423,-27.385536,1041.8416,-27.427526,1041.7367,-27.427526 Z"/>
</g>
<g style="fill:rgb(0,0,0); fill-opacity:1.0; stroke-linejoin: miter">
<path d="M663.9381,-31.336472C663.9334,-31.336472,663.9287,-31.336388,663.924,-31.336218L562.04065,-27.683102C562.0364,-27.683252,562.03204,-27.683334,562.0277,-27.683346C562.02734,-27.683348,562.027,-27.683348,562.0266,-27.683348C561.8106,-27.683348,561.63513,-27.508879,561.634,-27.292782L560.0844,258.61337C560.08386,258.7179,560.12494,258.81833,560.19867,258.89243L560.1977,258.89243C560.26886,258.96454,560.3678,259.00922,560.4771,259.00922C560.48206,259.00922,560.48694,259.00912,560.49176,259.00894L560.4974,259.00894L658.0401,261.77606C658.0438,261.77615,658.04755,261.7762,658.0513,261.7762C658.1533,261.7762,658.2515,261.73645,658.3249,261.6651C658.40094,261.59116,658.4439,261.4896,658.4439,261.3835L658.4439,261.3825L658.44385,261.37552L655.98535,123.16018L655.89435,118.03987L658.9267,122.166626L729.9825,218.86642C730.0579,218.96906,730.1764,219.02661,730.299,219.02661C730.3398,219.02661,730.38104,219.02023,730.4213,219.00703C730.5109,218.97765,730.5844,218.91814,730.632,218.84192L730.6314,218.84192L793.6236,118.659546L796.50433,114.07811L796.6311,119.488434L799.89075,258.5564C799.89575,258.76984,800.07025,258.93988,800.2832,258.93988C800.2847,258.93988,800.2863,258.93988,800.2879,258.93985C800.2967,258.93976,800.3054,258.93936,800.3141,258.9387L800.306,258.9387L890.70544,258.2011C890.9211,258.19934,891.095,258.02408,891.095,257.80844L891.095,257.80743L891.095,257.8069L890.69354,-30.696392C890.6934,-30.802324,890.65045,-30.903704,890.57446,-30.977516C890.5011,-31.048805,890.4029,-31.08854,890.3009,-31.08854C890.2973,-31.08854,890.29364,-31.08849,890.29004,-31.08839L789.4407,-28.30594C789.3036,-28.302158,789.1784,-28.227118,789.1104,-28.107986L731.3854,73.07618L730.0251,75.46062L728.584,73.124084L728.584,73.12409L664.27234,-31.14992C664.2007,-31.266125,664.07404,-31.336472,663.9381,-31.336472 Z"/>
</g>
<g style="fill:rgb(0,0,0); fill-opacity:1.0; stroke-linejoin: miter">
<path d="M504.74792,-29.76163C504.74686,-29.76163,504.74576,-29.761625,504.7447,-29.761618L243.4496,-27.791075L243.44958,-27.791075C243.44136,-27.791569,243.43307,-27.791834,243.42473,-27.79186C243.42426,-27.791862,243.4238,-27.791862,243.42332,-27.791862C243.187,-27.791862,242.99483,-27.601065,242.99332,-27.364567L242.41656,62.761032C242.41583,62.87556,242.4608,62.985653,242.54153,63.0669L242.54056,63.0669C242.61853,63.14588,242.72685,63.19483,242.8466,63.19483C242.85779,63.19483,242.86887,63.194405,242.87984,63.193565L242.8774,63.193565L334.16632,62.357277L335.80014,62.342308L335.77228,63.97597L335.77228,63.975967L332.51172,254.98009C332.50974,255.0954,332.5542,255.20667,332.63504,255.28891L332.63403,255.28891C332.71063,255.36736,332.81705,255.41664,332.93518,255.41843C332.9374,255.41846,332.9396,255.41847,332.9418,255.41847C332.9463,255.41847,332.95074,255.41841,332.95517,255.41827L332.9585,255.41827L422.34283,258.39508C422.34763,258.39523,422.3524,258.39532,422.35715,258.39532C422.46854,258.39532,422.5758,258.35208,422.65613,258.27438C422.7399,258.19336,422.7872,258.08182,422.7872,257.96527L422.7872,257.96426L422.78714,257.95773L419.84116,63.706856L419.84116,63.70686L419.81628,62.065918L421.4572,62.091312L504.98822,63.38519C504.99045,63.385223,504.99268,63.385242,504.9949,63.385242C505.1077,63.385242,505.2161,63.3409,505.2966,63.261627C505.3787,63.180794,505.42493,63.070404,505.42493,62.955193L505.42493,62.954193L505.42493,62.95304L505.17798,-29.332731C505.17767,-29.44715,505.13177,-29.556728,505.05045,-29.63722C504.96988,-29.716951,504.86118,-29.76163,504.74792,-29.76163 Z"/>
</g>
<g style="fill:rgb(0,0,0); fill-opacity:1.0; stroke-linejoin: miter">
<path d="M-89.64414,-31.095093C-89.87558,-31.095093,-90.06339,-30.907854,-90.0641,-30.676418L-90.95703,259.65488C-90.957375,259.76648,-90.913284,259.87363,-90.83449,259.95267L-90.83547,259.95267C-90.75937,260.0295,-90.65378,260.07712,-90.53707,260.07712C-90.52869,260.07712,-90.520355,260.07687,-90.51209,260.0764L-90.51119,260.0764L-2.7842467,260.89142C-2.7829483,260.89142,-2.7816505,260.89145,-2.7803533,260.89145C-2.6696987,260.89145,-2.563449,260.84775,-2.4847672,260.7698C-2.4054089,260.6912,-2.3606563,260.5842,-2.3603806,260.4725L-2.3603845,260.4725L-1.8724283,160.92683L-1.8644737,159.3076L-0.24544989,159.33318L-0.24545403,159.33318L97.902756,160.88487L99.462204,160.90952L99.47901,162.4691L100.50395,257.58835C100.50643,257.81863,100.69385,258.00378,100.92384,258.00378L100.92616,258.00378C100.93233,258.00375,100.93846,258.00357,100.944565,258.0033L100.94557,258.0033L184.62306,259.61343C184.62576,259.6135,184.62845,259.61353,184.63113,259.61353C184.74101,259.61353,184.84665,259.57043,184.92523,259.49335C185.00508,259.415,185.05038,259.30807,185.0511,259.1963L187.63602,-29.86892L187.63603,-29.872675L187.63603,-29.873674C187.63603,-29.98568,187.5913,-30.093046,187.51175,-30.171906C187.43306,-30.249918,187.32678,-30.29364,187.21608,-30.29364C187.21487,-30.29364,187.21367,-30.293634,187.21246,-30.293625L96.76146,-29.517893C96.75377,-29.518354,96.74602,-29.51861,96.73822,-29.518652C96.73744,-29.518656,96.73666,-29.518658,96.73588,-29.518658C96.505905,-29.518658,96.31851,-29.333529,96.315994,-29.103275L95.29088,64.81744L95.27332,66.42427L93.66654,66.401474L-2.406515,65.037735L-2.4065175,65.037735L-4.045806,65.01447L-3.9843214,63.37618L-3.9843214,63.376175L-0.4563375,-30.653759L-0.45604223,-30.669504L-0.45604223,-30.670504C-0.45604223,-30.902435,-0.64405394,-31.090458,-0.87598604,-31.09047L-89.64412,-31.095093 Z"/>
</g>
</g>
</svg>